<?xml version="1.0" encoding="UTF-8" standalone="no"?>
<!-- Created with Inkscape (http://www.inkscape.org/) -->

<svg
   width="101.03397mm"
   height="24.376728mm"
   viewBox="0 0 101.03398 24.376728"
   version="1.1"
   id="svg5"
   inkscape:version="1.1.2 (b8e25be833, 2022-02-05)"
   sodipodi:docname="devRoadLogo.svg"
   xmlns:inkscape="http://www.inkscape.org/namespaces/inkscape"
   xmlns:sodipodi="http://sodipodi.sourceforge.net/DTD/sodipodi-0.dtd"
   xmlns="http://www.w3.org/2000/svg"
   xmlns:svg="http://www.w3.org/2000/svg">
  <sodipodi:namedview
     id="namedview7"
     pagecolor="#505050"
     bordercolor="#eeeeee"
     borderopacity="1"
     inkscape:pageshadow="0"
     inkscape:pageopacity="0"
     inkscape:pagecheckerboard="0"
     inkscape:document-units="mm"
     showgrid="false"
     inkscape:snap-grids="true"
     fit-margin-top="0"
     fit-margin-left="0"
     fit-margin-right="0"
     fit-margin-bottom="0"
     inkscape:zoom="1.8116734"
     inkscape:cx="150.68941"
     inkscape:cy="92.731946"
     inkscape:window-width="1920"
     inkscape:window-height="1017"
     inkscape:window-x="-8"
     inkscape:window-y="-8"
     inkscape:window-maximized="1"
     inkscape:current-layer="layer1" />
  <defs
     id="defs2" />
  <g
     inkscape:label="Warstwa 1"
     inkscape:groupmode="layer"
     id="layer1"
     transform="translate(-70.26962,-111.42161)">
    <g
       style="fill:#ff2a2a"
       id="g26"
       transform="matrix(0.47440031,0,0,0.46878325,67.423218,108.60891)">
      <path
         d="m 28.291016,6 -1.884766,5.759766 c -2.851038,0.786327 -5.458409,2.155819 -7.685547,3.976562 l 1.337891,-2.908203 -2.351563,-1.279297 c -0.779,-0.423 -1.74314,-0.28325 -2.36914,0.34375 l -4.345703,4.34375 2.746093,5.417969 c -1.405163,2.474777 -2.333046,5.255785 -2.630859,8.226562 L 10,26.886719 7.4335938,27.646484 C 6.5835938,27.897484 6,28.678453 6,29.564453 v 6.144531 l 5.759766,1.884766 c 0.786327,2.851038 2.155819,5.458409 3.976562,7.685547 l -2.908203,-1.337891 -1.279297,2.351563 c -0.423,0.779 -0.28325,1.74314 0.34375,2.36914 l 4.34375,4.345703 5.417969,-2.746093 c 2.474777,1.405163 5.255785,2.333046 8.226562,2.630859 L 26.886719,54 27.646484,56.566406 C 27.897484,57.416406 28.678453,58 29.564453,58 h 6.144531 l 1.884766,-5.759766 c 2.851038,-0.786327 5.458409,-2.155819 7.685547,-3.976562 l -1.337891,2.908203 2.351563,1.279297 c 0.779,0.423 1.74314,0.28325 2.36914,-0.34375 l 4.345703,-4.34375 -2.746093,-5.417969 c 1.405163,-2.474777 2.333046,-5.255785 2.630859,-8.226562 L 54,37.113281 56.566406,36.353516 C 57.416406,36.102516 58,35.321547 58,34.435547 V 28.291016 L 52.240234,26.40625 c -0.786327,-2.851038 -2.155819,-5.458409 -3.976562,-7.685547 l 2.908203,1.337891 1.279297,-2.351563 c 0.423,-0.779 0.28325,-1.74314 -0.34375,-2.36914 l -4.34375,-4.345703 -5.417969,2.746093 C 39.870926,12.333118 37.089918,11.405235 34.119141,11.107422 L 37.113281,10 36.353516,7.4335938 C 36.102516,6.5835938 35.321547,6 34.435547,6 Z M 32,16 c 8.837,0 16,7.163 16,16 0,8.836 -7.163,16 -16,16 -8.837,0 -16,-7.164 -16,-16 0,-8.837 7.163,-16 16,-16 z m 0,4 c -6.627,0 -12,5.373 -12,12 0,6.627 5.373,12 12,12 6.627,0 12,-5.373 12,-12 0,-6.627 -5.373,-12 -12,-12 z m 0,8 c 2.209,0 4,1.791 4,4 0,2.209 -1.791,4 -4,4 -2.209,0 -4,-1.791 -4,-4 0,-2.209 1.791,-4 4,-4 z"
         id="path17"
         style="fill:#ff2a2a" />
    </g>
    <text
       xml:space="preserve"
       style="font-style:normal;font-variant:normal;font-weight:800;font-stretch:normal;font-size:16.9333px;line-height:1.25;font-family:Inter;-inkscape-font-specification:'Inter, Ultra-Bold';font-variant-ligatures:normal;font-variant-caps:normal;font-variant-numeric:normal;font-variant-east-asian:normal;fill:#ff2a2a;fill-opacity:1;stroke:none;stroke-width:0.264583"
       x="97.557129"
       y="129.83276"
       id="text3418"><tspan
         sodipodi:role="line"
         id="tspan3416"
         style="font-style:normal;font-variant:normal;font-weight:800;font-stretch:normal;font-size:16.9333px;font-family:Inter;-inkscape-font-specification:'Inter, Ultra-Bold';font-variant-ligatures:normal;font-variant-caps:normal;font-variant-numeric:normal;font-variant-east-asian:normal;fill:#ff2a2a;stroke-width:0.264583"
         x="97.557129"
         y="129.83276">DevRoad</tspan></text>
  </g>
</svg>
